<svg id="_0170_group_video_call" data-name="0170_group_video_call" xmlns="http://www.w3.org/2000/svg" viewBox="0 0 500 500" data-imageid="video-call-33" imageName="Video Call" class="illustrations_image" style="width: 188px;"><defs><style>.cls-1_video-call-33{fill:#d1d3d4;}.cls-2_video-call-33{fill:#fff;}.cls-3_video-call-33{fill:#231f20;}.cls-4_video-call-33{fill:#68e1fd;}</style></defs><ellipse id="Shadow_video-call-33" class="cls-1_video-call-33" cx="250" cy="440.35" rx="132.13" ry="7.72"/><g id="Smartphone_video-call-33"><rect class="cls-2_video-call-33" x="126.3" y="72.83" width="243.24" height="366.67" rx="13.18"/><path class="cls-3_video-call-33" d="M356.36,440.3H139.48a14,14,0,0,1-14-14V86a14,14,0,0,1,14-14H356.36a14,14,0,0,1,14,14v340.3A14,14,0,0,1,356.36,440.3ZM139.48,73.63A12.4,12.4,0,0,0,127.1,86v340.3a12.4,12.4,0,0,0,12.38,12.38H356.36a12.39,12.39,0,0,0,12.37-12.38V86a12.39,12.39,0,0,0-12.37-12.38Z"/><path class="cls-1_video-call-33" d="M255.14,84.28H221.4a.81.81,0,1,1,0-1.61h33.74a.81.81,0,1,1,0,1.61Z"/><path class="cls-1_video-call-33" d="M266,84.28h-5.9a.81.81,0,0,1,0-1.61H266a.81.81,0,1,1,0,1.61Z"/><path class="cls-2_video-call-33" d="M369.54,118.38h1.4a2.76,2.76,0,0,1,2.76,2.76v43.27a2.76,2.76,0,0,1-2.76,2.76h-1.4a0,0,0,0,1,0,0V118.38A0,0,0,0,1,369.54,118.38Z"/><path class="cls-3_video-call-33" d="M371,168h-1.41a.8.8,0,0,1-.81-.8V118.38a.8.8,0,0,1,.81-.8H371a3.57,3.57,0,0,1,3.56,3.56v43.27A3.57,3.57,0,0,1,371,168Zm-.6-1.61h.6a2,2,0,0,0,1.95-2V121.14a2,2,0,0,0-1.95-2h-.6Z"/><path class="cls-2_video-call-33" d="M369.54,174.71h1.4a2.76,2.76,0,0,1,2.76,2.76v43.27a2.76,2.76,0,0,1-2.76,2.76h-1.4a0,0,0,0,1,0,0V174.71A0,0,0,0,1,369.54,174.71Z"/><path class="cls-3_video-call-33" d="M371,224.3h-1.41a.8.8,0,0,1-.81-.8V174.71a.8.8,0,0,1,.81-.8H371a3.57,3.57,0,0,1,3.56,3.56v43.27A3.57,3.57,0,0,1,371,224.3Zm-.6-1.61h.6a2,2,0,0,0,1.95-1.95V177.47a2,2,0,0,0-1.95-1.95h-.6Z"/></g><g id="Male_character_2_video-call-33" data-name="Male character #2"><path class="cls-2_video-call-33" d="M337.29,274.2c1.36-4,3-8,3.82-12.15s.7-8.7-1.32-12.44a7.71,7.71,0,0,0-3.55-3.54,4.21,4.21,0,0,0-4.71.85,11.21,11.21,0,0,0-4.24-4,25.71,25.71,0,0,0-13.31-4c-3.78,0-8,1-10.93,3.5-2.7,2.29-4,5.9-4.81,9.22a26.35,26.35,0,0,0-1,9.73c1.05,8.19,8.31,11.09,15.28,13.33a28.76,28.76,0,0,0,9.73,1.73,12.48,12.48,0,0,0,8.92-3.75"/><path class="cls-3_video-call-33" d="M321.66,277.22a31.2,31.2,0,0,1-9.39-1.79c-7.41-2.38-14.74-5.42-15.84-14a27,27,0,0,1,1-10c.82-3.18,2.13-7.15,5.08-9.65A18,18,0,0,1,314,238h0a26.37,26.37,0,0,1,13.72,4.14,13.31,13.31,0,0,1,4,3.48,5.18,5.18,0,0,1,4.83-.34,8.38,8.38,0,0,1,4,3.91c2.39,4.4,2.08,9.49,1.4,13a62,62,0,0,1-2.74,9.12c-.37,1-.75,2.09-1.1,3.14A.82.82,0,0,1,337,275a.83.83,0,0,1-.53-1.05c.36-1.06.74-2.12,1.11-3.17a60.94,60.94,0,0,0,2.68-8.88c.63-3.23.92-7.9-1.23-11.88a7.05,7.05,0,0,0-3.14-3.17,3.38,3.38,0,0,0-3.76.63.84.84,0,0,1-.72.27.83.83,0,0,1-.64-.43,10.51,10.51,0,0,0-3.95-3.72,24.72,24.72,0,0,0-12.85-3.9h0A16.31,16.31,0,0,0,303.59,243c-2.58,2.17-3.75,5.66-4.54,8.79a25.39,25.39,0,0,0-1,9.41c1,7.63,7.8,10.43,14.7,12.65a28.83,28.83,0,0,0,9.45,1.69,11.68,11.68,0,0,0,8.33-3.47.85.85,0,0,1,1.18-.07.84.84,0,0,1,.06,1.18,13.38,13.38,0,0,1-9.51,4Z"/><path class="cls-3_video-call-33" d="M332.06,342.64c2.22-16.69,3.71-33.22,1.85-36.38-6.33-10.78-34.93-4.2-40.23-1.77-2.05.94-.82,17.83-4.18,38.15Z"/><polygon class="cls-4_video-call-33 targetColor" points="306.4 296.03 247.92 287.8 247.92 317.43 284.47 324.31 306.4 296.03" style="fill: rgb(0, 0, 0);"/><path class="cls-4_video-call-33 targetColor" d="M350.93,342.64V313.17c-10.75-8.11-24.53-13.95-24.53-13.95s-39.53-5.32-49.69-.09c-4.13,2.13-6.14,21.5-11.12,43.51H297.3l7.85-37.93,25.6.82-8.46,37.11Z" style="fill: rgb(0, 0, 0);"/><path class="cls-2_video-call-33" d="M307.36,289.82l-2.21,14.89s1,9.85,11,8.62A20,20,0,0,0,330.55,304l3-27.39s-6.76-4.66-2.86-20a48.31,48.31,0,0,1-25.61.62s-6.34,16.45-6,24.1S307.36,289.82,307.36,289.82Z"/><path class="cls-3_video-call-33" d="M314.47,314.27a9.65,9.65,0,0,1-6.17-2,12,12,0,0,1-4-7.46,1.48,1.48,0,0,1,0-.21l2.09-14.11c-2.19-.51-7.91-2.49-8.18-9.2-.32-7.73,5.82-23.75,6.08-24.42a.83.83,0,0,1,1-.51,48,48,0,0,0,25.13-.6.83.83,0,0,1,.84.16.85.85,0,0,1,.25.82c-3.69,14.54,2.46,19.12,2.53,19.16a.85.85,0,0,1,.35.77l-3,27.4a.82.82,0,0,1-.1.3,20.66,20.66,0,0,1-15,9.79A13.88,13.88,0,0,1,314.47,314.27ZM306,304.72a10.32,10.32,0,0,0,3.35,6.24,8.69,8.69,0,0,0,6.7,1.54,19.34,19.34,0,0,0,13.7-8.8l2.95-26.77c-1.43-1.29-5.93-6.48-3.12-19.17a50,50,0,0,1-23.95.37c-1.18,3.17-6,16.56-5.72,23.08.28,6.86,7.26,7.74,7.55,7.78a.85.85,0,0,1,.57.32.88.88,0,0,1,.16.63Z"/><path class="cls-3_video-call-33" d="M306.2,297.61s3.8,1.21,8.55-2.42,4.65-6.07,4.65-6.07a18.21,18.21,0,0,1-12,.7Z"/><path class="cls-3_video-call-33" d="M307.85,298.61a6.19,6.19,0,0,1-1.89-.24.79.79,0,0,1-.55-.88l1.15-7.79a.8.8,0,0,1,1-.65,17.48,17.48,0,0,0,11.46-.66.82.82,0,0,1,.76.05.81.81,0,0,1,.38.65c0,.29,0,3-5,6.74A12.19,12.19,0,0,1,307.85,298.61Zm-1.65-1h0Zm.91-.64c1.2.13,3.91.07,7.15-2.42a13.66,13.66,0,0,0,3.86-4.1,18.75,18.75,0,0,1-10.1.39Z"/><path class="cls-2_video-call-33" d="M316.31,268.13s-5.51,8-4.25,9.41,4.87.54,4.87.54"/><path class="cls-3_video-call-33" d="M314.66,279.16a4.25,4.25,0,0,1-3.2-1.08c-1.4-1.57,1.5-6.53,4.18-10.41a.81.81,0,1,1,1.33.91c-2.57,3.73-4.57,7.69-4.28,8.47.68.75,3,.5,4.05.25a.82.82,0,0,1,1,.59.8.8,0,0,1-.6,1A10.55,10.55,0,0,1,314.66,279.16Z"/><path class="cls-3_video-call-33" d="M315.42,284.68H315c-4.72-.2-8.13-3.93-8.27-4.08a.81.81,0,0,1,1.2-1.09s3.11,3.4,7.15,3.56a8.76,8.76,0,0,0,6.32-2.65.79.79,0,0,1,1.13,0,.81.81,0,0,1,0,1.14A10.3,10.3,0,0,1,315.42,284.68Z"/><ellipse class="cls-3_video-call-33" cx="322.69" cy="267.08" rx="2.2" ry="0.96" transform="translate(43.38 579.24) rotate(-87.79)"/><ellipse class="cls-3_video-call-33" cx="308.88" cy="265.54" rx="2.2" ry="0.96" transform="translate(31.64 563.96) rotate(-87.79)"/><path class="cls-2_video-call-33" d="M327.75,271.9a13.23,13.23,0,0,1,3.74-3.45,4.53,4.53,0,0,1,2.61-.84,4,4,0,0,1,2.07.86,8,8,0,0,1,3.2,5.64,6.3,6.3,0,0,1-.43,3,7,7,0,0,1-3.42,3.33,20.59,20.59,0,0,1-4.63,1.45"/><path class="cls-3_video-call-33" d="M330.89,282.76a.83.83,0,0,1-.19-1.64,20,20,0,0,0,4.45-1.39,6.16,6.16,0,0,0,3-2.91,5.37,5.37,0,0,0,.37-2.63,7.09,7.09,0,0,0-2.86-5.05,3.17,3.17,0,0,0-1.63-.7,3.79,3.79,0,0,0-2.12.71,12.62,12.62,0,0,0-3.51,3.24.83.83,0,0,1-1.16.18.84.84,0,0,1-.18-1.17,14,14,0,0,1,4-3.66,5.38,5.38,0,0,1,3.09-1,4.73,4.73,0,0,1,2.51,1A8.77,8.77,0,0,1,340.2,274a7.08,7.08,0,0,1-.5,3.44,7.83,7.83,0,0,1-3.81,3.74,21.63,21.63,0,0,1-4.81,1.52Z"/><path class="cls-4_video-call-33 targetColor" d="M350.93,326.4c-2.93,3.79-6.81,9.62-11,16.24h11Z" style="fill: rgb(0, 0, 0);"/><path class="cls-2_video-call-33" d="M267.19,335.24l6.22-29.71"/><path class="cls-3_video-call-33" d="M267.19,336.07a.5.5,0,0,1-.17,0,.82.82,0,0,1-.64-1l6.22-29.71a.83.83,0,1,1,1.62.34L268,335.41A.82.82,0,0,1,267.19,336.07Z"/><path class="cls-2_video-call-33" d="M260.63,252.06s17.84-15.79,19.85-15.81,6.2,4,5.45,4.85-6.58,9.55-6.58,9.55,6.83-1.39,6.84.25-9.44,6.15-9.44,6.15l-15,11.59Z"/><path class="cls-3_video-call-33" d="M261.75,269.47a.83.83,0,0,1-.34-.07.84.84,0,0,1-.49-.7l-1.12-16.59a.89.89,0,0,1,.28-.68c5.43-4.8,18.3-16,20.39-16h0c2.05,0,5.38,2.91,6.16,4.61a1.43,1.43,0,0,1-.09,1.63c-.45.5-3.19,4.52-5.43,7.84,2-.28,4.42-.43,5.37.34a1.37,1.37,0,0,1,.52,1.06c0,1.79-5.32,4.71-9.83,6.87L262.26,269.3A.87.87,0,0,1,261.75,269.47Zm-.26-17.06,1,14.62,13.76-10.64a.6.6,0,0,1,.15-.09c3.77-1.8,8-4.23,8.84-5.27a17.52,17.52,0,0,0-5.71.43.83.83,0,0,1-.86-1.28c.57-.85,5.36-8,6.5-9.45-.37-1-3.36-3.65-4.66-3.65h0C279.15,237.36,269.82,245.05,261.49,252.41Z"/><polygon class="cls-4_video-call-33 targetColor" points="247.92 287.8 269.69 263.7 259.22 247.94 248.51 256.17 247.92 287.8" style="fill: rgb(0, 0, 0);"/><path class="cls-3_video-call-33" d="M279.35,251.48a.81.81,0,0,1-.37-.09,9.59,9.59,0,0,0-7.48-.14.83.83,0,0,1-1.09-.43.84.84,0,0,1,.43-1.1,11.2,11.2,0,0,1,8.89.18.84.84,0,0,1-.38,1.58Z"/></g><g id="Female_character_2_video-call-33" data-name="Female character #2"><path class="cls-4_video-call-33 targetColor" d="M248.67,314.61s-6.75-10.31-24.91-20S179,292.24,169.33,298s-22,20.89-22,20.89v23.57H247.55Z" style="fill: rgb(0, 0, 0);"/><path class="cls-2_video-call-33" d="M194.4,236.25c-1.72.33-11.08-1.66-15.48,7.19s-12.65,48.13-12.65,48.13l69.54-3.77s-12.61-9-10.85-13,8.81-8.25,5.17-14.15-14.07-9.31-12.71-16.12S205.68,234.07,194.4,236.25Z"/><path class="cls-3_video-call-33" d="M166.27,292.37a.81.81,0,0,1-.61-.28.78.78,0,0,1-.17-.69c.33-1.61,8.31-39.48,12.71-48.32,3.88-7.82,11.49-7.67,14.77-7.61a8,8,0,0,0,1.28,0h0c8.74-1.68,18.29,0,22.21,4a5.72,5.72,0,0,1,1.75,5.31c-.74,3.73,2.69,6.45,6.32,9.33,2.37,1.88,4.83,3.83,6.29,6.21,2.87,4.66-.23,8.45-2.73,11.5a17.36,17.36,0,0,0-2.39,3.4c-1,2.3,5.56,8.39,10.58,12a.8.8,0,0,1-.43,1.46l-69.53,3.76Zm25.56-55.3c-3.45,0-9.12.54-12.19,6.73-3.91,7.86-11,40.66-12.36,46.9l66.26-3.58c-3.76-2.9-10.92-9-9.31-12.61a18.1,18.1,0,0,1,2.62-3.76c2.39-2.93,4.87-5.95,2.6-9.64-1.31-2.13-3.66-4-5.93-5.79-3.85-3-7.83-6.21-6.89-10.9a4.12,4.12,0,0,0-1.32-3.86c-3.51-3.54-12.63-5.09-20.75-3.52h0a9.54,9.54,0,0,1-1.63.05Zm2.57-.82h0Z"/><path class="cls-2_video-call-33" d="M207,284.3l1,13.51s-1.31,6.3-10.51,4.84-11-7.56-11-7.56l-.89-25.27s13.54-8.65,10.42-23c0,0,6.37,7.85,19.65,5.07,0,0,1.22,16.1.69,23.17S207,284.3,207,284.3Z"/><path class="cls-3_video-call-33" d="M200.06,303.68a17.24,17.24,0,0,1-2.74-.23c-9.58-1.52-11.58-7.86-11.67-8.13a1.2,1.2,0,0,1,0-.2l-.89-25.27a.82.82,0,0,1,.37-.71c.14-.09,13-8.53,10.07-22.16a.81.81,0,0,1,.43-.9.8.8,0,0,1,1,.21c.25.31,6.26,7.43,18.86,4.79a.83.83,0,0,1,.65.14.82.82,0,0,1,.32.59c.05.66,1.23,16.24.7,23.29-.49,6.47-7.11,9.1-9.26,9.79l.92,12.87a.86.86,0,0,1,0,.22C208.74,298,207.47,303.68,200.06,303.68Zm-12.83-8.74c.26.75,2.3,5.64,10.35,6.92,7.76,1.24,9.36-3.35,9.57-4.12l-1-13.39a.81.81,0,0,1,.61-.83c.09,0,8.22-2.14,8.7-8.54.45-6-.39-18.66-.63-22.15-9.2,1.64-15-1.64-17.75-3.81,1.21,12-8.66,19.71-10.76,21.21Z"/><path class="cls-2_video-call-33" d="M189.75,268.76a5.85,5.85,0,0,0-2.25-3,10.19,10.19,0,0,0-3.29-1.34,4.24,4.24,0,0,0-1.93-.19,3.54,3.54,0,0,0-1.25.57,4.57,4.57,0,0,0-2,2.45,5.42,5.42,0,0,0,.09,2.59,10.54,10.54,0,0,0,.91,2.69,7.16,7.16,0,0,0,9.77,3"/><path class="cls-3_video-call-33" d="M186.38,277.18a7.88,7.88,0,0,1-2.31-.34,8,8,0,0,1-4.74-3.93,11.18,11.18,0,0,1-1-2.89,6.3,6.3,0,0,1-.08-3,5.34,5.34,0,0,1,2.33-2.91,4.17,4.17,0,0,1,1.53-.69,5,5,0,0,1,2.29.2A11.33,11.33,0,0,1,188,265.1a6.78,6.78,0,0,1,2.56,3.4A.81.81,0,0,1,189,269a5,5,0,0,0-1.94-2.58,9.65,9.65,0,0,0-3-1.22,3.65,3.65,0,0,0-1.56-.18,2.59,2.59,0,0,0-1,.45,3.83,3.83,0,0,0-1.66,2,4.72,4.72,0,0,0,.1,2.2,9.64,9.64,0,0,0,.84,2.49,6.37,6.37,0,0,0,8.66,2.63.81.81,0,0,1,.77,1.42A8.07,8.07,0,0,1,186.38,277.18Z"/><path class="cls-2_video-call-33" d="M204.75,262.51s5.52,6.49,4.54,7.84-4.2.91-4.2.91"/><path class="cls-3_video-call-33" d="M206.26,272.14a8.85,8.85,0,0,1-1.28-.09.79.79,0,0,1-.69-.9.82.82,0,0,1,.91-.69c1.11.15,3,.07,3.44-.58.09-.66-2-3.89-4.51-6.84a.81.81,0,1,1,1.23-1.05c2.71,3.18,5.7,7.29,4.59,8.83C209.15,271.92,207.46,272.14,206.26,272.14Z"/><ellipse class="cls-3_video-call-33" cx="210.66" cy="260.61" rx="1.65" ry="1.17" transform="translate(-51.11 469.83) rotate(-89.68)"/><ellipse class="cls-3_video-call-33" cx="198.26" cy="260.61" rx="1.65" ry="1.17" transform="translate(-63.45 457.43) rotate(-89.68)"/><path class="cls-2_video-call-33" d="M208.93,275l-10.65-3.66s-2,3.93,1.83,7.7C204.24,283.1,208.93,275,208.93,275Z"/><path class="cls-3_video-call-33" d="M202.62,281a4.32,4.32,0,0,1-3.08-1.39,7.63,7.63,0,0,1-2-8.64.82.82,0,0,1,1-.4l10.65,3.67a.8.8,0,0,1,.44,1.16c-.12.21-3,5.09-6.46,5.56A3.39,3.39,0,0,1,202.62,281Zm-3.86-8.64a6.11,6.11,0,0,0,1.91,6.11,2.65,2.65,0,0,0,2.29.89c1.84-.25,3.73-2.46,4.74-3.93Z"/><line class="cls-2_video-call-33" x1="226.58" y1="342.45" x2="226.58" y2="319.18"/><path class="cls-3_video-call-33" d="M226.57,343.26a.8.8,0,0,1-.8-.81V319.18a.81.81,0,1,1,1.61,0v23.27A.81.81,0,0,1,226.57,343.26Z"/><line class="cls-2_video-call-33" x1="169.96" y1="342.45" x2="172.11" y2="316.89"/><path class="cls-3_video-call-33" d="M170,343.26h-.07a.81.81,0,0,1-.73-.88l2.14-25.56a.84.84,0,0,1,.87-.74.81.81,0,0,1,.74.87l-2.15,25.57A.8.8,0,0,1,170,343.26Z"/><path class="cls-2_video-call-33" d="M178.36,286.25c-.64-.9-2.69-2.53-7.12,13,0,0,1.64-20.88-3.35-20.88s-6.14,3.11-6.59,9.46a150.6,150.6,0,0,0,0,15.18l-17.19,17.26v22.1H154.4c8.14-13.29,20.47-33.63,21.25-35.92C176.81,303.05,179,287.16,178.36,286.25Z"/><path class="cls-3_video-call-33" d="M154.4,343.25H144.11a.84.84,0,0,1-.83-.84v-22.1a.85.85,0,0,1,.24-.59l16.93-17c-.08-1.75-.38-9.32,0-14.92s1.23-10.23,7.42-10.23a2.7,2.7,0,0,1,2,.92c2.14,2.32,2.52,9.19,2.46,14.45,2.32-6.65,3.81-7.85,4.9-8a1.78,1.78,0,0,1,1.8.86h0c1.07,1.51-1.74,18.42-2.6,21-.77,2.28-12,20.89-21.33,36.1A.83.83,0,0,1,154.4,343.25Zm-9.46-1.67h9c12.75-20.85,20.37-33.73,20.92-35.36,1.18-3.47,3.07-17.82,2.77-19.56a.39.39,0,0,0-.13-.12c-.05,0-1.86.31-5.46,13a.82.82,0,0,1-.94.59.85.85,0,0,1-.69-.89c.36-4.53.74-16.89-1.75-19.59a1,1,0,0,0-.77-.39c-4,0-5.28,1.95-5.76,8.69a149.52,149.52,0,0,0,0,15.08.83.83,0,0,1-.25.63l-16.94,17Z"/></g><g id="Audio_icon_video-call-33" data-name="Audio icon"><path class="cls-1_video-call-33" d="M186.15,398.26a19.07,19.07,0,1,1,19.07-19.07A19.09,19.09,0,0,1,186.15,398.26Zm0-36.52a17.46,17.46,0,1,0,17.46,17.45A17.47,17.47,0,0,0,186.15,361.74Z"/><path class="cls-1_video-call-33" d="M187.44,384.24h-2.58a4,4,0,0,1-4-4v-7.61a4,4,0,0,1,4-4h2.58a4,4,0,0,1,4,4v7.61A4,4,0,0,1,187.44,384.24Zm-2.58-14a2.4,2.4,0,0,0-2.4,2.4v7.61a2.41,2.41,0,0,0,2.4,2.4h2.58a2.4,2.4,0,0,0,2.4-2.4v-7.61a2.39,2.39,0,0,0-2.4-2.4Z"/><path class="cls-1_video-call-33" d="M186.15,388.93a.8.8,0,0,1-.81-.8v-4.7a.81.81,0,1,1,1.62,0v4.7A.8.8,0,0,1,186.15,388.93Z"/><path class="cls-1_video-call-33" d="M190.65,377.22h-9a.81.81,0,0,1,0-1.61h9a.81.81,0,1,1,0,1.61Z"/><path class="cls-1_video-call-33" d="M190.65,389.79h-9a.81.81,0,0,1,0-1.61h9a.81.81,0,1,1,0,1.61Z"/></g><g id="video_call_icon_video-call-33" data-name="video call icon"><path class="cls-1_video-call-33" d="M309.33,398.26a19.07,19.07,0,1,1,19.07-19.07A19.09,19.09,0,0,1,309.33,398.26Zm0-36.52a17.46,17.46,0,1,0,17.45,17.45A17.47,17.47,0,0,0,309.33,361.74Z"/><path class="cls-1_video-call-33" d="M311.22,385.86H300.81a2.74,2.74,0,0,1-2.74-2.74v-7.86a2.74,2.74,0,0,1,2.74-2.73h10.41a2.74,2.74,0,0,1,2.74,2.73v7.86A2.74,2.74,0,0,1,311.22,385.86Zm-10.41-11.72a1.12,1.12,0,0,0-1.12,1.12v7.86a1.12,1.12,0,0,0,1.12,1.12h10.41a1.12,1.12,0,0,0,1.12-1.12v-7.86a1.12,1.12,0,0,0-1.12-1.12Z"/><path class="cls-1_video-call-33" d="M319.77,383.92a.85.85,0,0,1-.26-.05l-4-1.38a.81.81,0,0,1-.54-.76v-5.81a.8.8,0,0,1,.54-.76l4-1.39a.77.77,0,0,1,.73.11.8.8,0,0,1,.34.65v8.58a.83.83,0,0,1-.34.66A.8.8,0,0,1,319.77,383.92Zm-3.21-2.77L319,382v-6.32l-2.41.83Z"/></g><g id="Call_Icon_video-call-33" data-name="Call Icon"><circle class="cls-4_video-call-33 targetColor" cx="247.74" cy="379.19" r="24.8" style="fill: rgb(0, 0, 0);"/><path class="cls-2_video-call-33" d="M247.74,372.24a45.65,45.65,0,0,0-5.61.32c-3.16.36-8.13.59-9.94,3.69a10.66,10.66,0,0,0-1.2,7,2,2,0,0,0,1.46,1.75,11,11,0,0,0,5.61.13,2.19,2.19,0,0,0,1.74-2.2,28.74,28.74,0,0,0,0-3.08c0-.81.3-1.39.93-1.43,2.55-.16,3.05-.43,5.6-.42,3.27,0,4.48.23,7.75.4,1.44.07,1.54.3,1.48,1.94a16.21,16.21,0,0,0,.13,2.79,2.17,2.17,0,0,0,1.64,2,11,11,0,0,0,5.42-.05,2.11,2.11,0,0,0,1.75-2,14.54,14.54,0,0,0,0-2.72c-.19-2.09-.82-4.27-2.59-5.56-2.08-1.53-5.3-1.76-7.78-2.1A48.08,48.08,0,0,0,247.74,372.24Z"/></g><g id="Female_character_2-2_video-call-33" data-name="Female character #2"><path class="cls-2_video-call-33" d="M284.45,129.47a12.3,12.3,0,0,1,9.43-1.32,36.92,36.92,0,0,1,7.23,2.8c.67.31,6.23,4.09,6.33,4s4.32-2.91,8.39-1.36c5.43,2.07,9.1,11.17,11.32,16,4,8.67,8.78,18.07,17.66,21.52-14.49,17.87-40.33,23.27-62.93,18.94a9.86,9.86,0,0,1-5-2c-1.75-1.62-2.17-4.18-2.48-6.54-1.3-9.65-2.52-19.52-1.25-29.25.9-6.92,3.35-14.76,8-20.11A13.61,13.61,0,0,1,284.45,129.47Z"/><path class="cls-3_video-call-33" d="M296.86,192.36a80.88,80.88,0,0,1-15.13-1.45,10.52,10.52,0,0,1-5.37-2.21c-1.89-1.75-2.38-4.32-2.74-7-1.15-8.58-2.58-19.25-1.25-29.46.63-4.89,2.55-14.05,8.23-20.54a14.82,14.82,0,0,1,3.43-2.9h0a13.18,13.18,0,0,1,10-1.41,38.38,38.38,0,0,1,7.39,2.85c.35.17,1.47.9,3.28,2.09.91.6,2.1,1.38,2.68,1.73,1.24-.72,5-2.58,8.69-1.18,5.29,2,8.84,9.93,11.19,15.17l.58,1.3c4,8.86,8.7,17.79,17.22,21.1a.8.8,0,0,1,.49.54.82.82,0,0,1-.15.71C334.73,184.89,316.61,192.36,296.86,192.36Zm-6.2-63.79a11.1,11.1,0,0,0-5.8,1.59h0a12.92,12.92,0,0,0-3.05,2.58c-5.4,6.16-7.24,15-7.85,19.69-1.3,10,.12,20.55,1.25,29,.33,2.4.74,4.67,2.24,6.05a9.15,9.15,0,0,0,4.58,1.81c24.3,4.66,48.28-2.34,61.47-17.83-8.43-3.81-13.06-12.69-17.08-21.51l-.59-1.31c-2.23-5-5.62-12.54-10.29-14.32-3.63-1.38-7.61,1.25-7.65,1.28-.5.33-.5.33-4-2-1.19-.78-2.82-1.85-3.09-2a36.69,36.69,0,0,0-7.07-2.73A12.89,12.89,0,0,0,290.66,128.57Zm-6.21.9h0Z"/><path class="cls-2_video-call-33" d="M351.08,218.59c-1.44-12.64-3.28-26.48-4.72-29.48-2.77-5.79-20.33-8.52-20.33-8.52l-9.36-1.23,7.74,51.06h26.67Z"/><path class="cls-3_video-call-33" d="M351.08,229.69h-26l-7.5-49.47,8.36,1.1c4.78.75,17.66,3.65,19.79,8.11,1.26,2.64,3.2,15.61,5.38,35.87V212.25c-1.36-11.14-2.83-20.9-4.05-23.46-2.91-6.07-20.16-8.81-20.91-8.93l-9.35-1.23a.73.73,0,0,0-.83.84l7.75,51.06a.72.72,0,0,0,.72.63h26.67Z"/><path class="cls-2_video-call-33" d="M276.92,230.42l6.58-48.58a27.73,27.73,0,0,0-19.94,10c-5.45,6.66-11.13,26.21-14.32,38.59Z"/><path class="cls-3_video-call-33" d="M276.92,231.16H249.23a.72.72,0,0,1-.58-.29.71.71,0,0,1-.13-.63c3.65-14.13,9.13-32.35,14.47-38.88a28.39,28.39,0,0,1,20.51-10.25.73.73,0,0,1,.55.25.76.76,0,0,1,.18.58l-6.58,48.58A.74.74,0,0,1,276.92,231.16Zm-26.73-1.47h26.08l6.38-47.06a27.24,27.24,0,0,0-18.52,9.66C258.83,198.78,253.21,218.11,250.19,229.69Z"/><path class="cls-3_video-call-33" d="M272.42,211.69a.74.74,0,0,1-.74-.73V194.64a.74.74,0,0,1,1.48,0V211A.74.74,0,0,1,272.42,211.69Z"/><path class="cls-4_video-call-33 targetColor" d="M338,230.42l-2.19-18.67s-19-7.77-9.65-32.39c0,0-19.28-5.35-45.7,1.44,0,0,1.39,19.13-10.48,33.47a47.56,47.56,0,0,0-1.09,16.15Z" style="fill: rgb(0, 0, 0);"/><path class="cls-2_video-call-33" d="M293.38,179.14l-1,13.51s1.32,6.31,10.52,4.85,11-7.57,11-7.57l.89-25.27s-13.55-8.65-10.42-23c0,0-6.37,7.84-19.65,5.06,0,0-1.23,16.1-.7,23.17S293.38,179.14,293.38,179.14Z"/><path class="cls-3_video-call-33" d="M300.32,198.52c-7.41,0-8.68-5.64-8.69-5.7a.86.86,0,0,1,0-.22l.92-12.87c-2.15-.68-8.78-3.31-9.26-9.79-.53-7.05.65-22.63.69-23.29a.81.81,0,0,1,.32-.58.85.85,0,0,1,.65-.15c12.66,2.65,18.8-4.71,18.87-4.78a.79.79,0,0,1,1-.22.8.8,0,0,1,.44.9c-3,13.63,9.93,22.07,10.06,22.16a.8.8,0,0,1,.37.71L314.76,190a1.18,1.18,0,0,1,0,.2c-.08.27-2.08,6.61-11.67,8.13A17.13,17.13,0,0,1,300.32,198.52Zm-7.09-5.94c.21.75,1.8,5.35,9.57,4.12,8-1.28,10.08-6.16,10.35-6.91l.86-24.72c-2.1-1.5-12-9.23-10.76-21.21-2.72,2.18-8.55,5.46-17.74,3.81-.25,3.49-1.08,16.18-.63,22.15.48,6.4,8.61,8.52,8.69,8.54a.8.8,0,0,1,.61.84Z"/><path class="cls-2_video-call-33" d="M310.63,163.6a5.89,5.89,0,0,1,2.25-3,10.19,10.19,0,0,1,3.29-1.34,4.24,4.24,0,0,1,1.93-.19,3.59,3.59,0,0,1,1.24.57,4.6,4.6,0,0,1,2,2.46,5.5,5.5,0,0,1-.09,2.58,11,11,0,0,1-.92,2.69,7.16,7.16,0,0,1-9.76,3"/><path class="cls-3_video-call-33" d="M314,172a7.92,7.92,0,0,1-3.81-1,.8.8,0,0,1-.33-1.09.81.81,0,0,1,1.1-.33,6.47,6.47,0,0,0,4.88.5,6.55,6.55,0,0,0,3.78-3.13,10.46,10.46,0,0,0,.84-2.49,4.72,4.72,0,0,0,.1-2.2,3.83,3.83,0,0,0-1.66-2,2.67,2.67,0,0,0-1-.45,3.71,3.71,0,0,0-1.57.18,9.75,9.75,0,0,0-3,1.22,5.15,5.15,0,0,0-1.94,2.58.79.79,0,0,1-1,.51.81.81,0,0,1-.51-1,6.78,6.78,0,0,1,2.56-3.4,11.38,11.38,0,0,1,3.54-1.45,5,5,0,0,1,2.29-.2,4.22,4.22,0,0,1,1.54.69,5.27,5.27,0,0,1,2.32,2.91,6.17,6.17,0,0,1-.08,3,11.2,11.2,0,0,1-1,2.89,8.07,8.07,0,0,1-4.74,3.93A7.93,7.93,0,0,1,314,172Z"/><path class="cls-2_video-call-33" d="M295.63,157.35s-5.52,6.49-4.55,7.84,4.21.91,4.21.91"/><path class="cls-3_video-call-33" d="M294.12,167c-1.2,0-2.89-.22-3.69-1.32-1.11-1.54,1.88-5.65,4.59-8.83a.8.8,0,0,1,1.13-.09.81.81,0,0,1,.09,1.14c-2.51,3-4.6,6.18-4.46,6.92.43.57,2.29.65,3.4.5a.81.81,0,0,1,.22,1.6A9.82,9.82,0,0,1,294.12,167Z"/><ellipse class="cls-3_video-call-33" cx="289.71" cy="155.45" rx="1.17" ry="1.65" transform="translate(-0.86 1.61) rotate(-0.32)"/><ellipse class="cls-3_video-call-33" cx="302.12" cy="155.45" rx="1.17" ry="1.65" transform="translate(-0.86 1.67) rotate(-0.32)"/><path class="cls-2_video-call-33" d="M291.45,169.81l10.65-3.66s2,3.93-1.83,7.7C296.13,177.94,291.45,169.81,291.45,169.81Z"/><path class="cls-3_video-call-33" d="M297.76,175.81a3.52,3.52,0,0,1-.56,0c-3.48-.47-6.33-5.35-6.45-5.56a.81.81,0,0,1-.06-.68.78.78,0,0,1,.49-.48l10.66-3.66a.81.81,0,0,1,1,.39,7.63,7.63,0,0,1-2,8.64A4.33,4.33,0,0,1,297.76,175.81Zm-5.08-5.57c1,1.47,2.9,3.69,4.74,3.93a2.63,2.63,0,0,0,2.28-.89,6.13,6.13,0,0,0,1.91-6.11Z"/><path class="cls-3_video-call-33" d="M306.61,160.14h-6.3a4.27,4.27,0,0,1-4.27-4.26v-4.3a.81.81,0,0,1,.81-.81h13.22a.8.8,0,0,1,.8.81v4.3A4.26,4.26,0,0,1,306.61,160.14Zm-8.95-7.76v3.5a2.65,2.65,0,0,0,2.65,2.65h6.3a2.65,2.65,0,0,0,2.65-2.65v-3.5Z"/><path class="cls-3_video-call-33" d="M291,160.14h-6.3a4.26,4.26,0,0,1-4.26-4.26v-4.3a.8.8,0,0,1,.8-.81h13.22a.81.81,0,0,1,.81.81v4.3A4.27,4.27,0,0,1,291,160.14ZM282,152.38v3.5a2.65,2.65,0,0,0,2.65,2.65H291a2.65,2.65,0,0,0,2.65-2.65v-3.5Z"/><path class="cls-3_video-call-33" d="M297.85,152.38h-6.91a.81.81,0,0,1,0-1.61h6.91a.81.81,0,0,1,0,1.61Z"/><path class="cls-3_video-call-33" d="M293.38,179.14s7,.34,10.39-1.41c0,0-3.11,7.89-10.84,9.55Z"/><path class="cls-3_video-call-33" d="M292.93,188.08a.81.81,0,0,1-.52-.19.77.77,0,0,1-.28-.65l.45-8.14a.74.74,0,0,1,.84-.76c.07,0,6.85.31,10-1.32a.8.8,0,0,1,1.11,1c-.13.34-3.35,8.32-11.41,10A.5.5,0,0,1,292.93,188.08Zm1.21-8.12-.35,6.27a15.29,15.29,0,0,0,8.33-7A31,31,0,0,1,294.14,180Z"/></g><g id="Male_character_1_video-call-33" data-name="Male character #1"><path class="cls-4_video-call-33 targetColor" d="M144.29,202.8s8-5.84,26.17-15.52,45.63-7.1,55.27-1.35,22,20.89,22,20.89v23.57H144.29Z" style="fill: rgb(0, 0, 0);"/><path class="cls-2_video-call-33" d="M186.88,213.17c2.14,1.78,11.84,3.52,14.07,2.94,5.92-1.52,12.2-3.63,15.83-8.76,2.06-2.9,3-6.47,3.81-10,.91-4.12,1.62-8.49.43-12.53-4-13.64-25-15-35.47-9.51C170.56,183.24,176.31,204.37,186.88,213.17Z"/><path class="cls-3_video-call-33" d="M199.71,217c-3.63,0-11.24-1.48-13.34-3.23-7.05-5.87-11.51-16.45-10.6-25.15a17.23,17.23,0,0,1,9.41-14c7.27-3.84,18.33-4.2,26.28-.83,5.35,2.26,8.92,6,10.33,10.83,1.23,4.19.53,8.69-.41,12.93-.75,3.33-1.72,7.15-3.94,10.29-3.71,5.24-10,7.46-16.29,9.07A6,6,0,0,1,199.71,217Zm-.47-43.91A29.2,29.2,0,0,0,185.93,176a15.65,15.65,0,0,0-8.56,12.78c-.86,8.21,3.36,18.19,10,23.74h0c1.86,1.54,11.27,3.31,13.35,2.78,6-1.54,12-3.63,15.37-8.45,2-2.89,3-6.52,3.68-9.7.9-4,1.57-8.29.45-12.13-1.28-4.34-4.53-7.73-9.41-9.8A30.4,30.4,0,0,0,199.24,173.11Z"/><path class="cls-2_video-call-33" d="M192.12,124.88c-10.17,1.79-19.33,7.93-19.12,19.3.12,6.93,3.86,13.48,9.08,18,7.65,6.68,19,9.34,28.43,5.62A23.39,23.39,0,0,0,225.07,148c.38-6.83-2.66-18.11-9.87-20.6-2.76-.95-6.17,1.24-6.17,1.24C207.71,124.62,196.35,124.13,192.12,124.88Z"/><path class="cls-3_video-call-33" d="M201.4,170.25a30.48,30.48,0,0,1-19.8-7.48c-5.82-5.08-9.22-11.85-9.34-18.58-.18-10.34,7.19-17.83,19.73-20,3.38-.59,14.72-.57,17.35,3.41,1.23-.63,3.81-1.7,6.1-.9,7.73,2.67,10.76,14.31,10.37,21.34a24.23,24.23,0,0,1-15,20.52A25.63,25.63,0,0,1,201.4,170.25Zm-5.21-44.92a24.12,24.12,0,0,0-3.95.27h0c-4.4.78-18.76,4.41-18.51,18.57.11,6.31,3.33,12.69,8.84,17.49,7.73,6.76,18.86,9,27.67,5.49a22.73,22.73,0,0,0,14.1-19.24c.37-6.84-2.68-17.55-9.38-19.86-2.39-.83-5.5,1.14-5.53,1.16a.75.75,0,0,1-.65.07.71.71,0,0,1-.45-.46C207.5,126.31,201.08,125.33,196.19,125.33Zm-4.07-.45h0Z"/><path class="cls-2_video-call-33" d="M210.14,178.66l.09,14.86s-1.5,8.3-10.54,5.77a18.71,18.71,0,0,1-12-10.65s-.75-31.29-.93-40.72c11-.18,23.06-7.24,23.06-7.24s3.77,5.66,5.41,7.46a22.65,22.65,0,0,1,3.4,4.47c1.52,2.86,1.46,6.43,1.39,9.59a61.8,61.8,0,0,1-1.12,11.19C217.45,180.39,210.14,178.66,210.14,178.66Z"/><path class="cls-3_video-call-33" d="M202.91,200.51a12.6,12.6,0,0,1-3.41-.51A19.26,19.26,0,0,1,187,188.89a.59.59,0,0,1,0-.23s-.76-31.29-.94-40.73a.75.75,0,0,1,.73-.75c10.65-.17,22.58-7.07,22.7-7.14a.73.73,0,0,1,1,.23s3.76,5.64,5.35,7.37a23.71,23.71,0,0,1,3.5,4.63c1.63,3.06,1.55,6.88,1.48,9.95a61.57,61.57,0,0,1-1.14,11.32,7.21,7.21,0,0,1-3.11,4.87,9,9,0,0,1-5.63,1.12l.09,14a9.11,9.11,0,0,1-3.81,5.84A7.85,7.85,0,0,1,202.91,200.51Zm-14.48-12a18.07,18.07,0,0,0,11.46,10.09c2.62.73,4.8.58,6.48-.47a7.85,7.85,0,0,0,3.14-4.72l-.11-14.72a.72.72,0,0,1,.28-.58.74.74,0,0,1,.63-.14,8,8,0,0,0,5.41-.79,5.78,5.78,0,0,0,2.46-3.92,59.6,59.6,0,0,0,1.1-11.05c.07-3.05.15-6.51-1.3-9.23a21.42,21.42,0,0,0-3.29-4.32c-1.36-1.5-4.09-5.49-5.1-7-2.55,1.41-12.52,6.58-22.08,7C187.71,158.45,188.38,186.35,188.43,188.49Z"/><path class="cls-3_video-call-33" d="M210.06,186s-6,.26-9.91-3.75-3.3-8.07-3.3-8.07,6.52,4.37,13.29,4.52Z"/><path class="cls-3_video-call-33" d="M209.79,186.67c-1.3,0-6.55-.24-10.15-4-4.07-4.21-3.52-8.48-3.49-8.66a.71.71,0,0,1,.41-.55.74.74,0,0,1,.69.06c.06,0,6.43,4.26,12.91,4.4a.7.7,0,0,1,.69.72l-.08,7.3a.72.72,0,0,1-.68.7Zm.27-.71h0Zm-12.5-10.55a10.52,10.52,0,0,0,3.1,6.31c2.88,3,7.07,3.45,8.69,3.52l.07-5.9A28.77,28.77,0,0,1,197.56,175.41Z"/><path class="cls-2_video-call-33" d="M204.32,155s4.77,7.14,3.64,8.38-4.32.42-4.32.42"/><path class="cls-3_video-call-33" d="M205.74,164.74a9.8,9.8,0,0,1-2.27-.29.72.72,0,0,1-.52-.87.7.7,0,0,1,.87-.51c.91.23,3,.48,3.61-.21.24-.65-1.48-4.17-3.71-7.5a.72.72,0,0,1,.2-1,.71.71,0,0,1,1,.2c2.32,3.47,4.83,7.89,3.58,9.25A3.69,3.69,0,0,1,205.74,164.74Z"/><ellipse class="cls-3_video-call-33" cx="210.61" cy="152.73" rx="0.82" ry="1.54" transform="translate(-5.84 8.4) rotate(-2.25)"/><ellipse class="cls-3_video-call-33" cx="196.82" cy="152.32" rx="1.54" ry="0.82" transform="translate(38.72 344.53) rotate(-88.3)"/><path class="cls-2_video-call-33" d="M189.8,157.57c-1.58-2.22-4-6.25-7.33-5a5.56,5.56,0,0,0-2.22,1.66c-2.63,3.11-2.23,7.28-.49,10.71,1.5,3,6.22,7.45,9.46,3.72"/><path class="cls-3_video-call-33" d="M186.36,170.79l-.56,0c-3-.38-5.72-3.58-6.7-5.51-2.15-4.24-1.93-8.54.59-11.52a6.18,6.18,0,0,1,2.53-1.87c3.57-1.33,6.11,2.32,7.8,4.74l.38.55a.72.72,0,0,1-.17,1,.74.74,0,0,1-1-.17l-.39-.56c-1.89-2.7-3.77-5.05-6.08-4.2a4.8,4.8,0,0,0-1.92,1.44c-2.12,2.51-2.27,6.21-.39,9.9,1.05,2.07,3.47,4.46,5.56,4.71a2.91,2.91,0,0,0,2.68-1.13.74.74,0,1,1,1.11,1A4.45,4.45,0,0,1,186.36,170.79Z"/><path class="cls-3_video-call-33" d="M204.91,171.74a8.43,8.43,0,0,1-.86-.05c-4.81-.55-8.15-5.49-8.29-5.7a.72.72,0,0,1,1.19-.8c0,.05,3.12,4.61,7.27,5.08a7.32,7.32,0,0,0,5.9-2.35.71.71,0,1,1,1,1A9,9,0,0,1,204.91,171.74Z"/><path class="cls-3_video-call-33" d="M168.49,231.2a.81.81,0,0,1-.81-.81V207.12a.81.81,0,1,1,1.61,0v23.27A.8.8,0,0,1,168.49,231.2Z"/><path class="cls-3_video-call-33" d="M227.66,231.23a.8.8,0,0,1-.79-.66l-4.59-24.29a.8.8,0,0,1,.64-.94.81.81,0,0,1,.94.65l4.59,24.28a.81.81,0,0,1-.64.95Z"/><path class="cls-2_video-call-33" d="M200,197.47s-12.55,13.28-11.91,26.3l21.15,2.42s-3.87-23.08-1.47-28.85Z"/><path class="cls-3_video-call-33" d="M209.21,227h-.09L188,224.57a.82.82,0,0,1-.72-.77c-.64-13.2,11.61-26.33,12.13-26.88a.84.84,0,0,1,.57-.26l7.77-.13a.85.85,0,0,1,.68.35.79.79,0,0,1,.08.77c-2.28,5.49,1.48,28.17,1.52,28.4a.77.77,0,0,1-.21.69A.79.79,0,0,1,209.21,227Zm-20.37-4,19.4,2.22c-.69-4.37-3.1-20.73-1.6-27.1l-6.31.11C198.69,200.09,188.7,211.69,188.84,223Z"/><path class="cls-1_video-call-33" d="M198.62,212.57h-.12a.82.82,0,0,1-.68-.92,28.4,28.4,0,0,1,5-12.37.81.81,0,0,1,1.27,1,27.18,27.18,0,0,0-4.62,11.62A.81.81,0,0,1,198.62,212.57Z"/><path class="cls-1_video-call-33" d="M211.17,202.44a.85.85,0,0,1-.31-.06.82.82,0,0,1-.43-1.06,46.52,46.52,0,0,0,2.8-7.83,14.76,14.76,0,0,0-.14-7.93.81.81,0,0,1,.51-1,.8.8,0,0,1,1,.51,16.26,16.26,0,0,1,.18,8.8,48,48,0,0,1-2.88,8.1A.8.8,0,0,1,211.17,202.44Z"/></g><g id="Screen_video-call-33"><path class="cls-3_video-call-33" d="M341.08,417.3H154.76A11.28,11.28,0,0,1,143.49,406V106.3A11.28,11.28,0,0,1,154.76,95H341.08a11.28,11.28,0,0,1,11.27,11.27V406A11.28,11.28,0,0,1,341.08,417.3ZM154.76,96.64a9.67,9.67,0,0,0-9.66,9.66V406a9.67,9.67,0,0,0,9.66,9.66H341.08a9.67,9.67,0,0,0,9.66-9.66V106.3a9.67,9.67,0,0,0-9.66-9.66Z"/><path class="cls-1_video-call-33" d="M178.72,110.39l.05-5.79h0l-2.12,5.79h-1.39l-2.07-5.79h0l0,5.79H171.3v-8.18h2.81l1.87,5.25h0l1.78-5.25h2.86v8.18Z"/><path class="cls-1_video-call-33" d="M185.48,111.26a4,4,0,0,1-.39.8,2.14,2.14,0,0,1-.51.6,1.78,1.78,0,0,1-.69.38,3.23,3.23,0,0,1-.94.13,3.48,3.48,0,0,1-.55,0,2.87,2.87,0,0,1-.49-.09l.21-1.59.3.07.31,0a.89.89,0,0,0,.64-.2,1.67,1.67,0,0,0,.33-.58l.19-.47-2.41-5.66h2.1l1.29,3.7h0l1.15-3.7h2Z"/><path class="cls-1_video-call-33" d="M197.64,110.4a6.84,6.84,0,0,1-1.75.2,5.1,5.1,0,0,1-1.81-.31,4,4,0,0,1-2.35-2.24,4.84,4.84,0,0,1,0-3.54,4.09,4.09,0,0,1,.94-1.36,4.21,4.21,0,0,1,1.41-.86,5,5,0,0,1,1.75-.3,5.31,5.31,0,0,1,1.8.3,3.71,3.71,0,0,1,1.35.79l-1.25,1.42A2.1,2.1,0,0,0,197,104a2.62,2.62,0,0,0-1.07-.21,2.32,2.32,0,0,0-1,.19,2.17,2.17,0,0,0-.77.53,2.57,2.57,0,0,0-.5.81,2.8,2.8,0,0,0-.18,1,3.11,3.11,0,0,0,.16,1,2.31,2.31,0,0,0,.48.82,2.34,2.34,0,0,0,.79.53,3,3,0,0,0,1.07.19,4.65,4.65,0,0,0,.66-.05,2.52,2.52,0,0,0,.57-.17v-1.49h-1.56v-1.6h3.38v4.34A6.11,6.11,0,0,1,197.64,110.4Z"/><path class="cls-1_video-call-33" d="M204.3,106.2l-.25,0h-.24a1.38,1.38,0,0,0-.64.14,1.4,1.4,0,0,0-.42.33,1.26,1.26,0,0,0-.22.43,1.3,1.3,0,0,0-.07.4v3h-1.9v-5.75h1.83v.84h0a1.83,1.83,0,0,1,.63-.72,1.57,1.57,0,0,1,.93-.28h.23l.18,0Z"/><path class="cls-1_video-call-33" d="M211,107.49a3.11,3.11,0,0,1-.25,1.28,2.85,2.85,0,0,1-.69,1,3.32,3.32,0,0,1-1,.62,3.58,3.58,0,0,1-2.47,0,3.1,3.1,0,0,1-1-.62,3,3,0,0,1-.68-1,3.11,3.11,0,0,1-.26-1.28,3.07,3.07,0,0,1,.26-1.27,2.93,2.93,0,0,1,.68-1,3.06,3.06,0,0,1,1-.6,3.74,3.74,0,0,1,2.47,0,3.27,3.27,0,0,1,1,.6,2.81,2.81,0,0,1,.69,1A3.06,3.06,0,0,1,211,107.49Zm-1.82,0a1.7,1.7,0,0,0-.09-.54,1.8,1.8,0,0,0-.27-.47,1.59,1.59,0,0,0-.43-.33,1.35,1.35,0,0,0-.59-.12,1.38,1.38,0,0,0-.59.12,1.4,1.4,0,0,0-.42.33,1.33,1.33,0,0,0-.25.47,1.7,1.7,0,0,0,0,1.09,1.41,1.41,0,0,0,.26.48,1.28,1.28,0,0,0,.42.34,1.38,1.38,0,0,0,.59.12,1.35,1.35,0,0,0,.59-.12,1.32,1.32,0,0,0,.43-.34,1.61,1.61,0,0,0,.26-.48A1.71,1.71,0,0,0,209.21,107.49Z"/><path class="cls-1_video-call-33" d="M216,110.39v-.79h0a1.84,1.84,0,0,1-.27.37,2,2,0,0,1-.39.3,2.48,2.48,0,0,1-.5.2,1.79,1.79,0,0,1-.57.09,2.12,2.12,0,0,1-1-.21,1.88,1.88,0,0,1-.64-.54,2,2,0,0,1-.36-.75,3.12,3.12,0,0,1-.11-.86v-3.56h1.91v3.12a3.44,3.44,0,0,0,0,.46,1.12,1.12,0,0,0,.13.39.78.78,0,0,0,.26.28.89.89,0,0,0,.43.09.87.87,0,0,0,.76-.37,1.46,1.46,0,0,0,.26-.86v-3.11h1.89v5.75Z"/><path class="cls-1_video-call-33" d="M225.73,107.49a3.75,3.75,0,0,1-.18,1.16,2.93,2.93,0,0,1-.54,1,2.59,2.59,0,0,1-.86.67,2.54,2.54,0,0,1-1.16.26,2.47,2.47,0,0,1-1-.22,1.81,1.81,0,0,1-.74-.58h0v3.41h-1.9v-8.53h1.81v.7h0a2.33,2.33,0,0,1,.73-.6,2.2,2.2,0,0,1,1.11-.26,2.63,2.63,0,0,1,1.13.24,2.54,2.54,0,0,1,.86.66,2.84,2.84,0,0,1,.54,1A3.43,3.43,0,0,1,225.73,107.49Zm-1.83,0a1.7,1.7,0,0,0-.09-.54,1.51,1.51,0,0,0-.25-.47,1.59,1.59,0,0,0-.43-.33,1.35,1.35,0,0,0-.59-.12,1.32,1.32,0,0,0-.57.12,1.48,1.48,0,0,0-.44.34,1.37,1.37,0,0,0-.27.47,1.54,1.54,0,0,0,0,1.09,1.37,1.37,0,0,0,.27.47,1.48,1.48,0,0,0,.44.34,1.32,1.32,0,0,0,.57.12,1.35,1.35,0,0,0,.59-.12,1.44,1.44,0,0,0,.43-.34,1.57,1.57,0,0,0,.25-.48A1.71,1.71,0,0,0,223.9,107.49Z"/><path class="cls-1_video-call-33" d="M332.76,112.61a.81.81,0,0,1-.8-.81V101.51a.81.81,0,1,1,1.61,0V111.8A.81.81,0,0,1,332.76,112.61Z"/><path class="cls-1_video-call-33" d="M338.67,107.46H326.48a.81.81,0,1,1,0-1.61h12.19a.81.81,0,1,1,0,1.61Z"/><path class="cls-1_video-call-33" d="M161.7,113a.72.72,0,0,1-.44-.14l-7.42-4.94a.8.8,0,0,1,0-1.34l7.42-4.95a.81.81,0,0,1,1.12.22.82.82,0,0,1-.23,1.12l-6.41,4.28,6.41,4.27a.82.82,0,0,1,.23,1.12A.84.84,0,0,1,161.7,113Z"/><path class="cls-3_video-call-33" d="M351.37,343.2H144.11a.81.81,0,0,1,0-1.61H351.37a.81.81,0,0,1,0,1.61Z"/><path class="cls-3_video-call-33" d="M247.92,343.2a.8.8,0,0,1-.81-.8v-224a.81.81,0,0,1,1.62,0v224A.8.8,0,0,1,247.92,343.2Z"/><path class="cls-3_video-call-33" d="M351.37,119.19H144.11a.81.81,0,0,1,0-1.61H351.37a.81.81,0,0,1,0,1.61Z"/><path class="cls-3_video-call-33" d="M351.55,231.23H144.29a.81.81,0,0,1,0-1.61H351.55a.81.81,0,0,1,0,1.61Z"/></g></svg>